<?xml version="1.0" encoding="utf-8"?>
<!-- Generator: Adobe Illustrator 23.0.0, SVG Export Plug-In . SVG Version: 6.00 Build 0)  -->
<svg version="1.1" id="Layer_1" xmlns="http://www.w3.org/2000/svg" xmlns:xlink="http://www.w3.org/1999/xlink" x="0px" y="0px"
	 viewBox="0 0 38.2 9.6" style="enable-background:new 0 0 38.2 9.6;" xml:space="preserve">
<style type="text/css">
	.st0{fill:url(#SVGID_1_);}
	.st1{fill-rule:evenodd;clip-rule:evenodd;fill:url(#SVGID_2_);}
	.st2{enable-background:new    ;}
	.st3{fill-rule:evenodd;clip-rule:evenodd;fill:url(#SVGID_3_);}
</style>
<g id="Shape_2_1_">
	<g id="Shape_2">
		<g>
			<linearGradient id="SVGID_1_" gradientUnits="userSpaceOnUse" x1="7.300000e-02" y1="4.2898" x2="8.2" y2="4.2898">
				<stop  offset="0" style="stop-color:#AC45FF"/>
				<stop  offset="1" style="stop-color:#8F4FFF"/>
			</linearGradient>
			<path class="st0" d="M1.2,4.3C-0.2,3.7,0.1,5,0.1,5c3.1,2.9,8.1-2.3,8.1-2.3C2.7,6,1.2,4.3,1.2,4.3z"/>
		</g>
	</g>
</g>
<g id="Shape_2_copy_1_">
	<g id="Shape_2_copy">
		<g>
			<linearGradient id="SVGID_2_" gradientUnits="userSpaceOnUse" x1="0" y1="4.8" x2="6.6" y2="4.8">
				<stop  offset="0" style="stop-color:#AC45FF"/>
				<stop  offset="1" style="stop-color:#8F4FFF"/>
			</linearGradient>
			<path class="st1" d="M1.2,4.8L1.2,4.8C1.3,4.8,1.3,4.8,1.2,4.8c0.1-2.2,1-4,2.1-4s2,1.6,2.1,3.7C5.8,4.4,6.1,4.2,6.6,4
				C6.3,1.9,5,0.2,3.3,0.2C1.5,0.2,0,2.3,0,4.8C0,4.9,0,5,0,5.1C0.1,4.8,0.4,4.4,1.2,4.8z M6.6,4.5C6.2,4.8,5.8,5.1,5.4,5.3
				c-0.1,1.9-1,3.4-2,3.4c-0.9,0-1.6-1-1.9-2.5C1,6.1,0.5,5.9,0.1,5.5c0.2,2.2,1.6,3.9,3.2,3.9c1.8,0,3.3-2.1,3.3-4.6
				C6.6,4.7,6.6,4.6,6.6,4.5z"/>
		</g>
	</g>
</g>
<g id="Shape_3_1_" class="st2">
	<g id="Shape_3">
		<g>
			<linearGradient id="SVGID_3_" gradientUnits="userSpaceOnUse" x1="11.4" y1="5.2" x2="38" y2="5.2">
				<stop  offset="0" style="stop-color:#AC45FF"/>
				<stop  offset="1" style="stop-color:#8F4FFF"/>
			</linearGradient>
			<path class="st3" d="M11.4,2.5h2.3V9h1.2V2.5h2.3V1.4h-5.7L11.4,2.5L11.4,2.5z M20.6,3.2c-0.4,0-0.8,0.1-1,0.3S19.2,4,19,4.3l0,0
				v-3h-1.2v7.6H19V5.1c0-0.2,0-0.3,0.1-0.4s0.2-0.2,0.3-0.3c0.1-0.1,0.2-0.1,0.4-0.2c0.1,0,0.3-0.1,0.4-0.1c0.7,0,1.1,0.4,1.1,1.3
				v3.4h1.2V5.4c0-0.7-0.2-1.2-0.5-1.6C21.7,3.4,21.2,3.2,20.6,3.2z M27.8,4c-0.2-0.3-0.5-0.5-0.8-0.6s-0.7-0.2-1.1-0.2
				s-0.8,0.1-1.1,0.2S24.2,3.7,24,4s-0.4,0.6-0.5,0.9c-0.1,0.4-0.2,0.8-0.2,1.2s0.1,0.9,0.2,1.2c0.1,0.4,0.3,0.7,0.5,1
				s0.5,0.5,0.8,0.6s0.7,0.2,1.1,0.2c0.5,0,1-0.1,1.4-0.3S28,8.3,28.2,8l-0.7-0.7c-0.2,0.3-0.4,0.5-0.6,0.6C26.7,8,26.4,8.1,26,8.1
				c-0.5,0-0.8-0.1-1.1-0.4c-0.3-0.3-0.4-0.6-0.4-1.1V6.4h3.9V6c0-0.4-0.1-0.8-0.2-1.1C28.2,4.5,28,4.2,27.8,4z M27.2,5.6h-2.6l0,0
				c0-0.2,0-0.4,0.1-0.6s0.2-0.3,0.3-0.5c0.1-0.1,0.3-0.2,0.4-0.3c0.2-0.1,0.4-0.1,0.6-0.1c0.4,0,0.7,0.1,0.9,0.4
				C27.1,4.8,27.2,5.1,27.2,5.6C27.2,5.5,27.2,5.6,27.2,5.6z M31.1,1.3H30v1.4c0,0.2,0,0.3-0.1,0.4c-0.1,0.1-0.2,0.1-0.4,0.1H29v1
				h0.9v3.4c0,0.4,0.1,0.7,0.3,0.9c0.2,0.2,0.5,0.3,0.9,0.3h1V8H31V4.3h1.2v-1H31v-2H31.1z M37.3,8V5.1c0-0.6-0.2-1.1-0.6-1.5
				c-0.4-0.3-1-0.5-1.7-0.5c-0.5,0-1,0.1-1.3,0.3s-0.6,0.5-0.8,0.8l0.7,0.6c0.1-0.2,0.3-0.4,0.5-0.6C34.3,4.1,34.6,4,34.9,4
				c0.4,0,0.7,0.1,0.9,0.3s0.3,0.5,0.3,0.8v0.5h-1c-0.8,0-1.4,0.1-1.8,0.4c-0.4,0.3-0.6,0.7-0.6,1.3c0,0.5,0.2,0.9,0.5,1.2
				S34,9,34.5,9c0.4,0,0.8-0.1,1.1-0.3S36,8.3,36.2,8h0.1c0,0.3,0.1,0.5,0.3,0.7S37,9,37.3,9H38V8H37.3z M36.1,7.3
				c0,0.3-0.1,0.5-0.4,0.7c-0.2,0.2-0.5,0.2-0.9,0.2c-0.3,0-0.5-0.1-0.7-0.2c-0.2-0.1-0.3-0.3-0.3-0.6V7.2c0-0.5,0.4-0.8,1.2-0.8h1
				v0.9H36.1z M27.2,1.3h-1.4l-0.6,1.4h1L27.2,1.3z"/>
		</g>
	</g>
</g>
</svg>
