<?xml version="1.0" encoding="utf-8"?>
<!-- Generator: Adobe Illustrator 23.0.0, SVG Export Plug-In . SVG Version: 6.00 Build 0)  -->
<svg version="1.1" xmlns="http://www.w3.org/2000/svg" xmlns:xlink="http://www.w3.org/1999/xlink" x="0px" y="0px"
	 viewBox="0 0 38.2 9.6" style="enable-background:new 0 0 38.2 9.6;" xml:space="preserve">
<style type="text/css">
	.st0{enable-background:new    ;}
	.st1{fill:#FFFFFF;}
	.st2{fill-rule:evenodd;clip-rule:evenodd;fill:#FFFFFF;}
</style>
<g id="Shape_2_1_" class="st0">
	<g id="Shape_2">
		<g>
			<path class="st1" d="M1.2,4.3C-0.2,3.7,0.1,5,0.1,5c3.1,2.9,8.1-2.3,8.1-2.3C2.7,6,1.2,4.3,1.2,4.3z"/>
		</g>
	</g>
</g>
<g id="Shape_2_copy_1_" class="st0">
	<g id="Shape_2_copy">
		<g>
			<path class="st2" d="M1.2,4.8C1.2,4.8,1.2,4.8,1.2,4.8C1.3,4.8,1.3,4.8,1.2,4.8c0.1-2.2,1-4,2.1-4c1.1,0,2,1.6,2.1,3.7
				c0.4-0.1,0.7-0.3,1.2-0.5C6.3,1.9,5,0.2,3.3,0.2c-1.8,0-3.3,2.1-3.3,4.6c0,0.1,0,0.2,0,0.3C0.1,4.8,0.4,4.4,1.2,4.8z M6.6,4.5
				C6.2,4.8,5.8,5.1,5.4,5.3c-0.1,1.9-1,3.4-2,3.4c-0.9,0-1.6-1-1.9-2.5C1,6.1,0.5,5.9,0.1,5.5c0.2,2.2,1.6,3.9,3.2,3.9
				c1.8,0,3.3-2.1,3.3-4.6C6.6,4.7,6.6,4.6,6.6,4.5z"/>
		</g>
	</g>
</g>
<g id="Shape_3_1_" class="st0">
	<g id="Shape_3">
		<g>
			<path class="st2" d="M11.4,2.5h2.3v6.5h1.2V2.5h2.3V1.4h-5.7V2.5z M20.6,3.2c-0.4,0-0.8,0.1-1,0.3c-0.2,0.2-0.4,0.5-0.6,0.8H19
				V1.3h-1.2v7.6H19V5.1c0-0.2,0-0.3,0.1-0.4c0.1-0.1,0.2-0.2,0.3-0.3c0.1-0.1,0.2-0.1,0.4-0.2c0.1,0,0.3-0.1,0.4-0.1
				c0.7,0,1.1,0.4,1.1,1.3v3.4h1.2V5.4c0-0.7-0.2-1.2-0.5-1.6C21.7,3.4,21.2,3.2,20.6,3.2z M27.8,4c-0.2-0.3-0.5-0.5-0.8-0.6
				c-0.3-0.1-0.7-0.2-1.1-0.2c-0.4,0-0.8,0.1-1.1,0.2S24.2,3.7,24,4s-0.4,0.6-0.5,0.9c-0.1,0.4-0.2,0.8-0.2,1.2
				c0,0.4,0.1,0.9,0.2,1.2C23.6,7.7,23.8,8,24,8.3s0.5,0.5,0.8,0.6s0.7,0.2,1.1,0.2c0.5,0,1-0.1,1.4-0.3s0.7-0.5,0.9-0.8l-0.7-0.7
				c-0.2,0.3-0.4,0.5-0.6,0.6C26.7,8,26.4,8.1,26,8.1c-0.5,0-0.8-0.1-1.1-0.4c-0.3-0.3-0.4-0.6-0.4-1.1V6.4h3.9V6
				c0-0.4-0.1-0.8-0.2-1.1C28.2,4.5,28,4.2,27.8,4z M27.2,5.6h-2.6V5.6c0-0.2,0-0.4,0.1-0.6s0.2-0.3,0.3-0.5
				c0.1-0.1,0.3-0.2,0.4-0.3c0.2-0.1,0.4-0.1,0.6-0.1c0.4,0,0.7,0.1,0.9,0.4c0.2,0.3,0.3,0.6,0.3,1V5.6z M31.1,1.3H30v1.4
				c0,0.2,0,0.3-0.1,0.4c-0.1,0.1-0.2,0.1-0.4,0.1H29v1h0.9v3.4c0,0.4,0.1,0.7,0.3,0.9c0.2,0.2,0.5,0.3,0.9,0.3h1V8h-1.1V4.3h1.2v-1
				h-1.2V1.3z M37.3,8V5.1c0-0.6-0.2-1.1-0.6-1.5c-0.4-0.3-1-0.5-1.7-0.5c-0.5,0-1,0.1-1.3,0.3c-0.3,0.2-0.6,0.5-0.8,0.8l0.7,0.6
				c0.1-0.2,0.3-0.4,0.5-0.6c0.2-0.1,0.5-0.2,0.8-0.2c0.4,0,0.7,0.1,0.9,0.3c0.2,0.2,0.3,0.5,0.3,0.8v0.5h-1c-0.8,0-1.4,0.1-1.8,0.4
				c-0.4,0.3-0.6,0.7-0.6,1.3c0,0.5,0.2,0.9,0.5,1.2c0.3,0.3,0.8,0.5,1.3,0.5c0.4,0,0.8-0.1,1.1-0.3S36,8.3,36.2,8h0.1
				c0,0.3,0.1,0.5,0.3,0.7c0.2,0.2,0.4,0.3,0.7,0.3h0.7V8H37.3z M36.1,7.3c0,0.3-0.1,0.5-0.4,0.7c-0.2,0.2-0.5,0.2-0.9,0.2
				c-0.3,0-0.5-0.1-0.7-0.2c-0.2-0.1-0.3-0.3-0.3-0.6V7.2c0-0.5,0.4-0.8,1.2-0.8h1V7.3z M27.2,1.3h-1.4l-0.6,1.4h1L27.2,1.3z"/>
		</g>
	</g>
</g>
</svg>
